<?xml version="1.0" standalone="no"?>
<!DOCTYPE svg PUBLIC "-//W3C//DTD SVG 20010904//EN"
 "http://www.w3.org/TR/2001/REC-SVG-20010904/DTD/svg10.dtd">
<svg version="1.0" xmlns="http://www.w3.org/2000/svg"
 width="1200.000000pt" height="232.000000pt" viewBox="0 0 1200.000000 232.000000"
 preserveAspectRatio="xMidYMid meet">

<g transform="translate(0.000000,232.000000) scale(0.100000,-0.100000)"
fill="#000000" stroke="none">
<path d="M7000 2250 c-225 -32 -457 -160 -586 -325 -32 -41 -62 -75 -66 -75
-4 0 -22 28 -40 63 -68 130 -210 237 -378 286 -84 24 -92 25 -532 28 l-448 4
0 -638 c0 -351 -4 -644 -8 -651 -9 -14 -17 4 -177 388 -58 140 -130 311 -159
380 -29 69 -90 214 -136 323 l-83 197 -217 0 -218 0 -17 -42 c-9 -24 -45 -110
-80 -193 -35 -82 -118 -280 -185 -440 -166 -397 -189 -450 -220 -525 -15 -36
-44 -103 -63 -150 -20 -47 -68 -161 -107 -255 -40 -93 -74 -176 -77 -183 -4
-10 40 -12 213 -10 l217 3 55 130 c29 72 75 182 102 245 26 63 114 273 194
465 185 442 178 425 186 425 4 0 16 -21 27 -48 108 -252 233 -556 233 -563 0
-5 -82 -10 -182 -11 l-183 -3 -77 -180 c-42 -99 -77 -183 -77 -187 -1 -5 154
-8 343 -8 l343 0 55 -133 55 -132 316 -3 317 -2 0 264 0 264 238 5 c195 4 250
8 312 25 102 27 180 63 256 118 44 31 66 41 69 32 2 -7 13 -44 24 -83 99 -342
384 -590 741 -646 105 -16 324 -6 420 20 150 40 281 114 394 223 l66 63 -122
124 c-82 84 -125 121 -133 115 -7 -5 -43 -33 -81 -62 -81 -61 -168 -105 -242
-121 -72 -15 -216 -14 -278 3 -168 45 -309 188 -367 371 -31 99 -31 271 0 370
54 171 165 292 328 355 84 33 270 34 360 1 70 -25 160 -78 228 -134 41 -34 50
-38 61 -26 15 16 203 236 223 260 12 15 5 24 -61 77 -127 102 -233 152 -401
188 -86 19 -288 26 -375 14z m-1165 -412 c61 -32 109 -80 129 -130 19 -44 21
-154 4 -210 -17 -56 -87 -131 -150 -159 -49 -22 -68 -24 -265 -27 l-213 -4 0
282 0 282 223 -4 c218 -3 223 -4 272 -30z"/>
<path d="M8298 844 l-278 -336 0 -129 0 -129 275 0 275 0 0 -100 0 -100 135 0
135 0 0 100 0 100 65 0 65 0 0 120 0 120 -65 0 -65 0 0 345 0 345 -132 0 -133
0 -277 -336z m274 -184 l-3 -170 -139 0 c-77 0 -140 4 -140 8 0 11 269 332
278 332 4 0 6 -76 4 -170z"/>
<path d="M9926 1170 c-125 -20 -233 -95 -281 -198 -42 -88 -57 -187 -57 -362
0 -308 64 -461 230 -542 62 -31 74 -33 189 -37 102 -2 134 0 191 18 86 26 142
66 186 133 128 196 122 676 -12 853 -39 52 -121 108 -182 125 -52 15 -197 20
-264 10z m172 -225 c45 -37 62 -93 71 -229 8 -113 0 -304 -15 -370 -4 -15 -23
-46 -44 -67 -32 -34 -43 -39 -82 -39 -50 0 -86 29 -112 90 -33 81 -46 298 -25
446 20 143 55 194 135 194 31 0 51 -7 72 -25z"/>
<path d="M9100 200 l0 -150 165 0 165 0 0 150 0 150 -165 0 -165 0 0 -150z"/>
</g>
</svg>
